<svg width="128" height="128" viewBox="0 0 128 128" fill="none" xmlns="http://www.w3.org/2000/svg">
<rect width="128" height="128" fill="white"/>
<path d="M52.3149 60.5005C50.2564 57.8351 49.0308 54.4915 49.0308 50.8623C49.0308 49.1369 49.3045 47.4711 49.8161 45.9242C51.8628 39.701 57.6695 35.1912 64.5471 35.0842C64.5947 35.0842 64.6423 35.0842 64.6899 35.0842V28.5873C62.7028 28.5873 60.7871 28.8372 58.9427 29.3131C56.1702 30.0271 53.6119 31.2408 51.3511 32.859C48.4477 34.9295 46.0441 37.6662 44.3664 40.8433C43.0694 43.3064 42.2007 46.0313 41.8676 48.9227C41.7724 49.7914 41.7129 50.6719 41.7129 51.5643L47.4839 56C47.4958 56.2737 41.939 57.1212 47.4839 66.5452C47.6267 66.7832 47.7576 67.0212 47.9123 67.2592C48.4953 68.223 49.1379 69.2463 49.8399 70.2934C51.0774 72.1497 52.5172 74.1487 54.1593 76.2548C55.1826 77.5637 56.2892 78.9202 57.491 80.3362C59.145 82.2757 60.9893 84.3105 63.0003 86.4285C63.3929 86.8331 63.7737 87.2376 64.1664 87.6541C64.333 87.8326 64.4996 87.9992 64.678 88.1777V66.6642C59.6566 66.6166 55.1826 64.213 52.3149 60.5005Z" fill="#004643"/>
<path d="M75.7086 75.6242C75.9823 75.2672 76.256 74.9102 76.5178 74.5533C76.958 73.9702 77.3745 73.3991 77.7791 72.8398C78.0408 72.4828 78.2788 72.1259 78.5287 71.7689C79.3497 70.5909 80.0994 69.4605 80.7776 68.3777C81.0156 67.9969 81.2536 67.6161 81.4797 67.2354C83.4192 64.0226 84.7519 61.2858 85.6562 59.025C85.9656 58.2635 86.2274 57.5614 86.4416 56.907C87.5839 53.5515 87.6672 51.7071 87.6672 51.5524V51.5405C87.6672 50.7552 87.6196 49.9817 87.5363 49.2202C87.4292 48.1374 87.2507 47.0784 87.0008 46.0551C86.858 45.4958 86.7033 44.9485 86.5249 44.4011C86.4178 44.0798 86.3107 43.7585 86.1917 43.4373C85.3826 41.2954 84.2759 39.3083 82.8956 37.5354C81.4916 35.7148 79.8376 34.1203 77.9575 32.7876C77.6363 32.5616 77.3031 32.3355 76.9699 32.1332C75.2922 31.0623 73.4597 30.2174 71.5202 29.6225C70.5088 29.3131 69.4735 29.0632 68.4145 28.8847C67.2008 28.6825 65.9514 28.5635 64.6782 28.5635V35.0841C64.7258 35.0841 64.7615 35.0841 64.8091 35.0841C67.3079 35.0841 69.6758 35.6672 71.782 36.7024C75.2327 38.404 77.9695 41.3311 79.433 44.9128C80.0875 46.5191 80.4801 48.2445 80.5753 50.065C80.5872 50.3387 80.5991 50.6124 80.5991 50.8861C80.5991 56.3239 77.8505 61.1192 73.6739 63.9512C72.4245 64.8079 71.0323 65.4743 69.5568 65.9384C68.0575 66.4143 66.4631 66.6642 64.8091 66.6642C64.7615 66.6642 64.7258 66.6642 64.6782 66.6642V88.1539C64.8805 87.9516 65.0709 87.7493 65.2732 87.5351C69.5092 83.2158 72.9362 79.2415 75.7086 75.6242Z" fill="#436B6A"/>
<path d="M63.9881 41.8904L56.4798 48.768C56.1467 49.0774 56.1348 49.5772 56.4441 49.9104L56.6345 50.1007C56.9439 50.422 57.4556 50.4696 57.7649 50.184L58.3242 49.6843V57.0379C58.3242 57.49 58.6931 57.8589 59.1452 57.8589H62.0724C62.5245 57.8589 62.8934 57.49 62.8934 57.0379V51.8975H64.714V41.6643C64.4522 41.6405 64.1785 41.7119 63.9881 41.8904Z" fill="#F0B300"/>
<path d="M66.6177 57.0498C66.6058 57.5019 66.939 57.8589 67.3912 57.8589H70.4849C70.9371 57.8589 71.3059 57.49 71.3059 57.0498V49.8033C71.3059 49.8033 71.4606 49.9341 71.651 50.1126C71.8414 50.2792 72.246 50.1483 72.5434 49.8152L72.7576 49.5772C73.067 49.244 73.0313 48.7323 72.6981 48.4349L65.2255 41.8904C65.0827 41.7714 64.9043 41.7 64.7139 41.6762V51.9094H66.6177V57.0498Z" fill="#F0B300"/>
<path d="M85.066 43.1307L85.0659 43.1306L85.0608 43.1388C84.0696 44.7498 83.7209 46.664 84.0832 48.5128C84.4655 50.5658 85.3774 52.488 86.7314 54.0971C87.8285 55.4275 89.1413 56.5718 90.6169 57.4843C90.7622 57.5805 90.9326 57.6313 91.1061 57.6313C91.2788 57.6313 91.4483 57.581 91.5932 57.4857C93.1192 56.5587 94.4403 55.3408 95.4777 53.9036C96.5159 52.4653 97.2486 50.8369 97.6319 49.1149C98.1497 47.0471 97.8533 44.8645 96.8028 43.0018L96.797 42.9915L96.7907 42.9815C96.2 42.041 95.3801 41.2603 94.4058 40.7091C93.4315 40.158 92.333 39.8534 91.2095 39.8222L91.2 39.8219L91.1904 39.822C89.5062 39.8397 87.8784 40.4247 86.5809 41.4805C85.9839 41.9414 85.4714 42.4994 85.066 43.1307ZM54.7982 17.3315L54.7981 17.3314L54.7911 17.3428C53.3006 19.7872 52.783 22.6853 53.3387 25.4814C53.9121 28.6312 55.2976 31.5844 57.3628 34.0615C59.0526 36.1159 61.077 37.8827 63.3541 39.2907C63.5356 39.4111 63.7488 39.4748 63.9661 39.4748C64.183 39.4748 64.3956 39.4114 64.5768 39.2916C66.9161 37.8632 68.9402 35.9902 70.5291 33.7825C72.1201 31.572 73.2425 29.0711 73.8293 26.4276L73.8304 26.4222C74.5321 23.0898 74.2039 19.7511 72.5577 17.105C72.0754 16.3165 71.4803 15.6001 70.7909 14.9774C68.9827 13.297 66.5968 12.3457 64.1077 12.3096L64.1077 12.3094L64.095 12.3095C61.5359 12.3375 59.0637 13.2285 57.0953 14.834C56.1919 15.5336 55.4152 16.3779 54.7982 17.3315ZM63.6583 18.3715L63.6588 18.3715C64.5513 18.3706 65.4231 18.6288 66.1639 19.1124C66.9046 19.596 67.4804 20.2826 67.8201 21.0842C68.1598 21.8856 68.2488 22.7671 68.0763 23.6174C67.9037 24.4678 67.477 25.2505 66.8484 25.8657C66.2196 26.4811 65.4173 26.9013 64.5422 27.0714C63.6671 27.2415 62.7602 27.1536 61.9367 26.8192C61.1134 26.4849 60.4116 25.9197 59.919 25.1967C59.4264 24.4739 59.1648 23.6255 59.1658 22.7588V22.7583C59.1658 21.5983 59.6364 20.4837 60.4778 19.6602C61.3195 18.8363 62.4634 18.3715 63.6583 18.3715ZM42.4487 68.3917C42.5285 68.445 42.6156 68.4853 42.7068 68.5115V68.881L43.4659 68.421C45.1783 67.3833 46.6603 66.0181 47.8231 64.4065C48.9844 62.7968 49.8033 60.9743 50.2307 59.0474C50.8119 56.7414 50.4835 54.306 49.3122 52.2276L49.3068 52.218L49.301 52.2087C48.9398 51.6288 48.4979 51.1013 47.9884 50.6414C46.6558 49.406 44.8998 48.7071 43.0685 48.6806L43.0685 48.6804L43.0555 48.6806C41.1767 48.7023 39.3613 49.3552 37.9135 50.5319C37.2546 51.0484 36.6855 51.6669 36.2289 52.3632L36.2249 52.3694L36.221 52.3758C35.1163 54.1747 34.7279 56.3107 35.1317 58.3741C35.5607 60.6716 36.5803 62.8234 38.0934 64.6267C39.3238 66.1084 40.7955 67.3804 42.4487 68.3917ZM42.771 53.3018C43.3871 53.3019 43.9885 53.4808 44.4991 53.8148C45.0098 54.1488 45.4062 54.6225 45.6399 55.1746C45.8734 55.7266 45.9344 56.3333 45.8155 56.9186C45.6965 57.5039 45.4026 58.0431 44.9692 58.4673C44.5357 58.8916 43.9821 59.1817 43.3779 59.2994C42.7736 59.417 42.1473 59.3565 41.5787 59.126C41.0102 58.8955 40.526 58.5059 40.1862 58.008C39.8465 57.5105 39.6658 56.9266 39.6657 56.3303C39.6671 55.531 39.992 54.7626 40.5728 54.194C41.1541 53.6251 41.9444 53.303 42.771 53.3018ZM90.9055 44.0707C91.4445 44.0698 91.9709 44.2254 92.418 44.5168C92.8649 44.8082 93.2118 45.2216 93.4165 45.7036C93.6212 46.1854 93.675 46.7152 93.5717 47.2264C93.4684 47.7376 93.2122 48.2088 92.8338 48.5799C92.4553 48.951 91.9715 49.2051 91.4431 49.3083C90.9147 49.4116 90.367 49.3589 89.8697 49.1576C89.3725 48.9562 88.9492 48.6158 88.6522 48.1809C88.3553 47.7461 88.1975 47.2361 88.1975 46.7153C88.1975 46.0182 88.48 45.3473 88.9866 44.8507C89.4935 44.3536 90.1834 44.0719 90.9055 44.0707Z" fill="#F0B300" stroke="white"/>
<path d="M24.6362 105C24.6362 105.872 24.4709 106.615 24.1401 107.227C23.812 107.839 23.3641 108.306 22.7964 108.629C22.2313 108.949 21.5959 109.109 20.8901 109.109C20.1792 109.109 19.5412 108.948 18.9761 108.625C18.411 108.302 17.9644 107.835 17.6362 107.223C17.3081 106.611 17.144 105.87 17.144 105C17.144 104.128 17.3081 103.385 17.6362 102.773C17.9644 102.161 18.411 101.695 18.9761 101.375C19.5412 101.052 20.1792 100.891 20.8901 100.891C21.5959 100.891 22.2313 101.052 22.7964 101.375C23.3641 101.695 23.812 102.161 24.1401 102.773C24.4709 103.385 24.6362 104.128 24.6362 105ZM22.9214 105C22.9214 104.435 22.8368 103.958 22.6675 103.57C22.5008 103.182 22.2651 102.888 21.9604 102.688C21.6558 102.487 21.299 102.387 20.8901 102.387C20.4813 102.387 20.1245 102.487 19.8198 102.688C19.5151 102.888 19.2782 103.182 19.1089 103.57C18.9422 103.958 18.8589 104.435 18.8589 105C18.8589 105.565 18.9422 106.042 19.1089 106.43C19.2782 106.818 19.5151 107.112 19.8198 107.312C20.1245 107.513 20.4813 107.613 20.8901 107.613C21.299 107.613 21.6558 107.513 21.9604 107.312C22.2651 107.112 22.5008 106.818 22.6675 106.43C22.8368 106.042 22.9214 105.565 22.9214 105ZM25.8892 109V101H31.186V102.395H27.5806V104.301H30.8345V105.695H27.5806V109H25.8892ZM32.3237 109V101H37.6206V102.395H34.0151V104.301H37.269V105.695H34.0151V109H32.3237ZM40.4497 101V109H38.7583V101H40.4497ZM48.8999 103.801H47.189C47.1577 103.579 47.0939 103.383 46.9976 103.211C46.9012 103.036 46.7775 102.888 46.6265 102.766C46.4754 102.643 46.3009 102.549 46.103 102.484C45.9077 102.419 45.6955 102.387 45.4663 102.387C45.0522 102.387 44.6916 102.49 44.3843 102.695C44.077 102.898 43.8387 103.195 43.6694 103.586C43.5002 103.974 43.4155 104.445 43.4155 105C43.4155 105.57 43.5002 106.049 43.6694 106.437C43.8413 106.826 44.0809 107.118 44.3882 107.316C44.6955 107.514 45.0509 107.613 45.4546 107.613C45.6812 107.613 45.8908 107.583 46.0835 107.523C46.2788 107.464 46.452 107.376 46.603 107.262C46.7541 107.145 46.8791 107.003 46.978 106.836C47.0796 106.669 47.1499 106.479 47.189 106.266L48.8999 106.273C48.8556 106.641 48.745 106.995 48.5679 107.336C48.3934 107.674 48.1577 107.978 47.8608 108.246C47.5666 108.512 47.215 108.723 46.8062 108.879C46.3999 109.033 45.9403 109.109 45.4272 109.109C44.7137 109.109 44.0757 108.948 43.5132 108.625C42.9533 108.302 42.5106 107.835 42.1851 107.223C41.8621 106.611 41.7007 105.87 41.7007 105C41.7007 104.128 41.8647 103.385 42.1929 102.773C42.521 102.161 42.9663 101.695 43.5288 101.375C44.0913 101.052 44.7241 100.891 45.4272 100.891C45.8908 100.891 46.3205 100.956 46.7163 101.086C47.1147 101.216 47.4676 101.406 47.7749 101.656C48.0822 101.904 48.3322 102.207 48.5249 102.566C48.7202 102.926 48.8452 103.337 48.8999 103.801ZM50.1128 109V101H55.5034V102.395H51.8042V104.301H55.2261V105.695H51.8042V107.605H55.519V109H50.1128Z" fill="#F9BC60"/>
<path d="M59.394 109V101H61.0854V107.605H64.5151V109H59.394ZM72.6753 105C72.6753 105.872 72.5099 106.615 72.1792 107.227C71.8511 107.839 71.4032 108.306 70.8354 108.629C70.2703 108.949 69.6349 109.109 68.9292 109.109C68.2183 109.109 67.5802 108.948 67.0151 108.625C66.45 108.302 66.0034 107.835 65.6753 107.223C65.3472 106.611 65.1831 105.87 65.1831 105C65.1831 104.128 65.3472 103.385 65.6753 102.773C66.0034 102.161 66.45 101.695 67.0151 101.375C67.5802 101.052 68.2183 100.891 68.9292 100.891C69.6349 100.891 70.2703 101.052 70.8354 101.375C71.4032 101.695 71.8511 102.161 72.1792 102.773C72.5099 103.385 72.6753 104.128 72.6753 105ZM70.9604 105C70.9604 104.435 70.8758 103.958 70.7065 103.57C70.5399 103.182 70.3042 102.888 69.9995 102.688C69.6948 102.487 69.3381 102.387 68.9292 102.387C68.5203 102.387 68.1636 102.487 67.8589 102.688C67.5542 102.888 67.3172 103.182 67.1479 103.57C66.9813 103.958 66.8979 104.435 66.8979 105C66.8979 105.565 66.9813 106.042 67.1479 106.43C67.3172 106.818 67.5542 107.112 67.8589 107.312C68.1636 107.513 68.5203 107.613 68.9292 107.613C69.3381 107.613 69.6948 107.513 69.9995 107.312C70.3042 107.112 70.5399 106.818 70.7065 106.43C70.8758 106.042 70.9604 105.565 70.9604 105ZM80.9868 103.801H79.2759C79.2446 103.579 79.1808 103.383 79.0845 103.211C78.9881 103.036 78.8644 102.888 78.7134 102.766C78.5623 102.643 78.3879 102.549 78.1899 102.484C77.9946 102.419 77.7824 102.387 77.5532 102.387C77.1392 102.387 76.7785 102.49 76.4712 102.695C76.1639 102.898 75.9256 103.195 75.7563 103.586C75.5871 103.974 75.5024 104.445 75.5024 105C75.5024 105.57 75.5871 106.049 75.7563 106.437C75.9282 106.826 76.1678 107.118 76.4751 107.316C76.7824 107.514 77.1379 107.613 77.5415 107.613C77.7681 107.613 77.9777 107.583 78.1704 107.523C78.3657 107.464 78.5389 107.376 78.6899 107.262C78.841 107.145 78.966 107.003 79.0649 106.836C79.1665 106.669 79.2368 106.479 79.2759 106.266L80.9868 106.273C80.9425 106.641 80.8319 106.995 80.6548 107.336C80.4803 107.674 80.2446 107.978 79.9478 108.246C79.6535 108.512 79.3019 108.723 78.8931 108.879C78.4868 109.033 78.0272 109.109 77.5142 109.109C76.8006 109.109 76.1626 108.948 75.6001 108.625C75.0402 108.302 74.5975 107.835 74.272 107.223C73.9491 106.611 73.7876 105.87 73.7876 105C73.7876 104.128 73.9517 103.385 74.2798 102.773C74.6079 102.161 75.0532 101.695 75.6157 101.375C76.1782 101.052 76.811 100.891 77.5142 100.891C77.9777 100.891 78.4074 100.956 78.8032 101.086C79.2017 101.216 79.5545 101.406 79.8618 101.656C80.1691 101.904 80.4191 102.207 80.6118 102.566C80.8071 102.926 80.9321 103.337 80.9868 103.801ZM83.4282 109H81.6157L84.3774 101H86.5571L89.3149 109H87.5024L85.4985 102.828H85.436L83.4282 109ZM83.3149 105.855H87.5962V107.176H83.3149V105.855ZM88.9956 102.395V101H95.5659V102.395H93.1167V109H91.4448V102.395H88.9956ZM103.634 105C103.634 105.872 103.469 106.615 103.138 107.227C102.81 107.839 102.362 108.306 101.794 108.629C101.229 108.949 100.594 109.109 99.8882 109.109C99.1772 109.109 98.5392 108.948 97.9741 108.625C97.409 108.302 96.9624 107.835 96.6343 107.223C96.3062 106.611 96.1421 105.87 96.1421 105C96.1421 104.128 96.3062 103.385 96.6343 102.773C96.9624 102.161 97.409 101.695 97.9741 101.375C98.5392 101.052 99.1772 100.891 99.8882 100.891C100.594 100.891 101.229 101.052 101.794 101.375C102.362 101.695 102.81 102.161 103.138 102.773C103.469 103.385 103.634 104.128 103.634 105ZM101.919 105C101.919 104.435 101.835 103.958 101.666 103.57C101.499 103.182 101.263 102.888 100.958 102.688C100.654 102.487 100.297 102.387 99.8882 102.387C99.4793 102.387 99.1226 102.487 98.8179 102.688C98.5132 102.888 98.2762 103.182 98.1069 103.57C97.9403 103.958 97.8569 104.435 97.8569 105C97.8569 105.565 97.9403 106.042 98.1069 106.43C98.2762 106.818 98.5132 107.112 98.8179 107.312C99.1226 107.513 99.4793 107.613 99.8882 107.613C100.297 107.613 100.654 107.513 100.958 107.312C101.263 107.112 101.499 106.818 101.666 106.43C101.835 106.042 101.919 105.565 101.919 105ZM104.887 109V101H108.043C108.648 101 109.163 101.108 109.59 101.324C110.02 101.538 110.347 101.841 110.571 102.234C110.797 102.625 110.911 103.085 110.911 103.613C110.911 104.145 110.796 104.602 110.567 104.984C110.338 105.365 110.006 105.656 109.571 105.859C109.139 106.062 108.615 106.164 108 106.164H105.887V104.805H107.727C108.05 104.805 108.318 104.76 108.532 104.672C108.745 104.583 108.904 104.451 109.008 104.273C109.115 104.096 109.168 103.876 109.168 103.613C109.168 103.348 109.115 103.124 109.008 102.941C108.904 102.759 108.744 102.621 108.528 102.527C108.314 102.431 108.045 102.383 107.719 102.383H106.579V109H104.887ZM109.208 105.359L111.196 109H109.329L107.383 105.359H109.208Z" fill="#004643"/>
</svg>
